<svg width="225" height="153" viewBox="0 0 225 153" fill="none" xmlns="http://www.w3.org/2000/svg">
<path d="M86.4388 141.103C86.4296 141.225 86.4693 141.346 86.5491 141.438C86.6289 141.531 86.7423 141.588 86.8643 141.598C86.9863 141.607 87.1069 141.567 87.1997 141.487C87.2924 141.407 87.3496 141.294 87.3588 141.172C87.6164 137.492 87.987 133.839 88.5602 130.204C88.7845 128.754 89.0292 127.318 89.2918 125.87C89.3006 125.821 89.3095 125.772 89.3184 125.724C91.0528 116.382 93.2678 107.119 95.6658 97.9224C95.7021 97.7843 95.7383 97.6466 95.7746 97.509C98.1854 88.3309 100.97 79.2557 104.305 70.3793C104.387 70.1599 104.47 69.9404 104.552 69.7207C108.112 60.275 112.292 51.0796 116.944 42.1271C117.098 41.8315 117.252 41.5354 117.407 41.239C121.907 32.6365 126.841 24.2581 131.656 15.7875C131.874 15.4018 132.083 15.027 132.293 14.6506C132.775 13.7939 133.23 12.9187 133.696 12.1167C133.796 11.9375 133.978 11.6791 133.962 11.6936C133.951 11.7006 133.916 11.7414 133.79 11.7952C133.726 11.8233 133.524 11.8877 133.298 11.8273C133.055 11.7628 132.916 11.6185 132.841 11.5098C132.699 11.2647 132.747 11.2811 132.73 11.2366C132.728 11.2082 132.73 11.2142 132.731 11.2193C132.736 11.2614 132.731 11.369 132.722 11.4652C132.682 11.8901 132.597 12.3758 132.513 12.8488C132.161 14.77 131.754 16.6782 131.295 18.5843C131.239 18.8125 131.182 19.0464 131.124 19.2861C127.327 34.9235 123.488 50.5621 119.735 66.2172C119.716 66.2964 119.697 66.3752 119.678 66.4537C118.642 70.9271 117.686 75.3862 116.864 79.8898C116.398 82.7232 115.753 85.5526 115.964 88.5002C115.965 88.5094 115.966 88.5185 115.967 88.5277L115.971 88.5544C116.164 89.3959 116.723 90.0754 117.256 90.678C117.259 90.6811 117.263 90.683 117.267 90.6835C117.271 90.6841 117.275 90.6831 117.278 90.6807C117.282 90.6783 117.284 90.6746 117.285 90.6705C117.286 90.6663 117.285 90.6619 117.283 90.6584C117.283 90.6584 117.283 90.6584 117.283 90.6584C116.846 89.9636 116.533 89.2213 116.392 88.4595L116.396 88.4862C116.396 88.4775 116.395 88.4688 116.394 88.46C116.282 85.6552 117.03 82.8289 117.605 80.0383C118.595 75.5889 119.705 71.172 120.765 66.713C120.783 66.6379 120.802 66.5592 120.822 66.4801C124.648 50.847 128.509 35.2137 132.369 19.591C132.429 19.3516 132.486 19.1179 132.543 18.8897C133.011 16.981 133.549 15.1192 134.045 13.1797C134.166 12.6925 134.287 12.2184 134.376 11.675C134.386 11.6143 134.397 11.5317 134.405 11.4546C134.413 11.3815 134.421 11.2955 134.421 11.1873C134.42 11.1335 134.421 11.0905 134.408 10.9881C134.379 10.8756 134.424 10.8563 134.241 10.5433C134.148 10.4087 133.991 10.2486 133.719 10.176C133.466 10.1077 133.224 10.1796 133.134 10.2196C132.965 10.2901 132.866 10.3785 132.812 10.4252C132.457 10.7727 132.373 10.9544 132.211 11.1844C131.644 12.0569 131.175 12.8922 130.69 13.7547C130.48 14.1305 130.271 14.5036 130.056 14.8868C125.263 23.3296 120.374 31.7844 115.909 40.4619C115.755 40.7611 115.602 41.0601 115.45 41.3587C110.836 50.4008 106.785 59.7259 103.289 69.2499C103.208 69.4714 103.127 69.6928 103.046 69.914C99.7694 78.8627 97.0195 88.0001 94.6691 97.2219C94.6338 97.3601 94.5984 97.4986 94.5631 97.6372C92.2278 106.879 90.152 116.18 88.4107 125.558C88.4018 125.607 88.3929 125.656 88.384 125.705C88.1202 127.16 87.8743 128.603 87.6484 130.063C87.0717 133.718 86.6963 137.421 86.4388 141.103Z" fill="#EBE7E6"/>
<path d="M119.624 88.0062C119.529 88.0736 119.465 88.1757 119.446 88.2902C119.427 88.4047 119.454 88.5221 119.521 88.6166C119.589 88.7112 119.691 88.7751 119.805 88.7944C119.92 88.8136 120.037 88.7866 120.132 88.7192C120.132 88.7192 120.132 88.7192 120.132 88.7192C121.539 87.2445 122.528 85.8896 123.7 84.4659C126.859 80.5396 130.003 76.5989 133.159 72.6712C133.232 72.581 133.305 72.4905 133.378 72.3997C136.035 69.0185 139.418 66.3734 143.306 64.5135C143.465 64.4314 143.624 64.3485 143.782 64.2657C145.62 63.2834 147.79 63.101 149.827 63.5874C150.031 63.6344 150.234 63.6872 150.436 63.7455C151.206 63.967 151.877 64.5992 152.438 65.3232C152.574 65.4976 152.705 65.6796 152.833 65.8658C154.145 68.4116 154.129 71.9643 154.663 75.1292C154.702 75.4061 154.743 75.6837 154.786 75.962C154.859 76.3961 154.976 76.911 155.435 77.3431C155.913 77.785 156.579 77.8013 157.022 77.7184C157.368 77.6578 157.67 77.5523 157.956 77.4387C159.794 76.7129 161.476 75.708 163.224 75.2408C163.506 75.1674 163.789 75.1104 164.071 75.0749C166.098 74.8211 168.108 75.9615 170.063 77.0548C170.353 77.2157 170.648 77.3774 170.951 77.533C172.613 78.3801 174.211 77.3116 175.291 76.6891C175.548 76.5401 175.8 76.397 176.034 76.2945C176.959 75.8659 177.935 76.0689 178.873 76.6588C179.858 77.1845 180.568 78.2215 182.222 78.46C182.345 78.465 182.472 78.4584 182.598 78.4383C185.374 78.1017 187.732 75.8717 189.834 76.0616C189.869 76.0684 189.904 76.0764 189.938 76.0855C191.169 76.4066 192.28 77.0557 193.267 77.8962C193.764 78.3143 194.229 78.7764 194.73 79.2532C195.259 79.6872 195.682 80.3637 196.859 80.4536L197.129 80.3862C197.169 80.3663 197.209 80.3448 197.246 80.3235C197.666 80.0827 197.979 79.7951 198.273 79.4966C198.922 78.8244 199.436 78.0833 199.939 77.3427C199.948 77.3294 199.957 77.3162 199.965 77.3031C200.493 76.5315 200.885 75.6713 201.29 74.8464C201.293 74.8411 201.293 74.8345 201.292 74.8284C201.29 74.8223 201.287 74.8172 201.282 74.8139C201.277 74.8106 201.271 74.8093 201.264 74.8102C201.258 74.811 201.252 74.8139 201.248 74.8184C201.248 74.8184 201.248 74.8184 201.248 74.8184C200.649 75.5262 200.022 76.1945 199.395 76.8474C199.384 76.8586 199.374 76.8698 199.363 76.8811C198.762 77.5102 198.121 78.1067 197.478 78.6325C197.192 78.8641 196.899 79.0857 196.634 79.2361C196.611 79.2493 196.587 79.262 196.565 79.2732L196.835 79.2058C196.613 79.243 196.028 78.792 195.562 78.3559C195.072 77.908 194.564 77.4281 194.012 76.9884C192.914 76.0999 191.619 75.3821 190.219 75.0216C190.162 75.0066 190.105 74.9935 190.047 74.9823C186.762 74.874 184.941 77.0758 182.42 77.2979C182.371 77.3053 182.322 77.3078 182.269 77.3055C180.705 77.0848 178.485 73.8296 175.562 75.2134C175.242 75.354 174.965 75.5146 174.698 75.6692C173.543 76.3662 172.389 77.0013 171.48 76.4963C171.197 76.3526 170.912 76.1972 170.626 76.0385C168.685 74.9752 166.506 73.6276 163.925 73.9222C163.587 73.965 163.255 74.0323 162.932 74.1163C160.942 74.6583 159.267 75.6483 157.513 76.3259C157.272 76.4214 157.033 76.4994 156.819 76.5362C156.52 76.5879 156.333 76.5473 156.235 76.4549C156.119 76.3619 156.004 76.0929 155.957 75.7783C155.913 75.5047 155.87 75.2312 155.83 74.958C155.236 71.7625 155.438 68.5157 153.757 65.2273C153.619 65.0277 153.473 64.8282 153.319 64.6332C152.682 63.8311 151.867 63.0233 150.73 62.7015C150.509 62.6408 150.287 62.5857 150.064 62.5365C147.833 62.0217 145.349 62.2451 143.307 63.3683C143.152 63.4516 142.994 63.5354 142.837 63.619C138.925 65.5288 135.385 68.4043 132.695 71.8513C132.622 71.9422 132.549 72.0328 132.477 72.123C129.32 76.0514 126.175 79.9939 123.019 83.9167C121.898 85.2927 120.691 86.8448 119.624 88.0062Z" fill="#EBE7E6"/>
<path d="M188.784 69.8671C188.823 70.0413 188.929 70.1929 189.08 70.2885C189.231 70.384 189.414 70.4158 189.588 70.3767C189.762 70.3377 189.914 70.231 190.009 70.0802C190.105 69.9294 190.137 69.7469 190.098 69.5726C190.098 69.5726 190.098 69.5726 190.098 69.5726C190.141 69.9875 190.023 69.9817 190.022 70.0217C190.006 70.0454 190.005 70.043 190.01 70.0384C190.022 70.0258 190.053 69.9977 190.085 69.9718C190.156 69.9136 190.236 69.8547 190.326 69.7915C190.504 69.6681 190.693 69.5477 190.887 69.4286C193.358 67.9588 196.028 66.6982 198.683 65.4558L198.646 65.4715C198.659 65.4662 198.673 65.4608 198.687 65.4555C201.671 64.2848 204.843 63.6636 207.983 62.8423C207.99 62.8404 207.997 62.8386 208.003 62.8368C210.225 62.2527 212.406 61.5223 214.549 60.6534C214.991 60.4742 215.43 60.2897 215.869 60.0988C215.928 60.0729 215.98 60.0291 216.012 59.9712C216.043 59.9133 216.052 59.8467 216.036 59.7846C216.019 59.7226 215.979 59.6691 215.923 59.6344C215.866 59.5998 215.8 59.5876 215.735 59.5945C215.259 59.6466 214.786 59.7043 214.314 59.7684C212.021 60.0789 209.768 60.5295 207.55 61.1127C207.543 61.1145 207.536 61.1163 207.529 61.1182C204.387 61.9425 201.264 62.9978 198.195 64.2022C198.181 64.2077 198.167 64.2132 198.153 64.2187L198.116 64.2344C195.434 65.4913 192.778 66.7385 190.183 68.281C189.974 68.4092 189.769 68.5393 189.556 68.6872C189.446 68.7643 189.346 68.8362 189.228 68.9334C189.172 68.9796 189.115 69.0276 189.04 69.1053C189.007 69.1398 188.962 69.1877 188.915 69.2562C188.882 69.3445 188.73 69.3957 188.784 69.8671Z" fill="#EBE7E6"/>
<path d="M167.609 29.9817C167.676 29.9763 167.739 29.9443 167.783 29.8928C167.827 29.8413 167.848 29.7745 167.843 29.7071C167.837 29.6397 167.805 29.5772 167.754 29.5334C167.702 29.4895 167.636 29.468 167.568 29.4734C167.568 29.4734 167.568 29.4734 167.568 29.4734C161.87 29.9184 156.161 30.4408 150.501 31.2997C146.216 31.9403 141.961 32.7338 137.718 33.6338C137.709 33.6357 137.7 33.6376 137.691 33.6395C122.972 36.8382 108.424 40.7977 94.0349 45.2336C94.0119 45.2407 93.9891 45.2479 93.9662 45.2551C85.6303 48.1448 76.7568 50.1412 69.7083 55.9814C69.7047 55.9893 69.7012 55.9973 69.6979 56.0052C69.6135 56.1711 69.6435 56.4472 69.7661 56.5905C69.8813 56.7407 70.0129 56.8192 70.143 56.889C70.3971 57.0188 70.6538 57.092 70.9099 57.1553C71.4218 57.2774 71.9308 57.3436 72.4399 57.3967C73.4617 57.4993 74.4809 57.5365 75.4911 57.5553C77.5259 57.5886 79.5446 57.5374 81.5844 57.4568C81.6302 57.4549 81.6763 57.453 81.7225 57.4512C96.0148 56.7729 110.253 55.4606 124.513 54.6292C124.546 54.6273 124.58 54.6254 124.613 54.6235C132.507 54.3104 140.638 53.6309 148.214 55.6795C148.243 55.6898 148.271 55.7004 148.299 55.7115C149.016 55.9814 149.371 56.6705 149.274 57.3195C149.271 57.3452 149.267 57.371 149.264 57.3969C146.468 62.3426 139.456 64.4775 134.129 67.451L134.157 67.4377C134.113 67.4569 134.07 67.4762 134.025 67.4955C117.73 74.526 101.074 80.7684 84.4385 87.0069C84.4103 87.0174 84.382 87.028 84.3537 87.0385C62.606 95.1364 40.8027 103.11 19.0525 111.23C13.6955 113.228 8.33884 115.234 2.98842 117.249C2.97998 117.252 2.97307 117.258 2.96924 117.266C2.96541 117.275 2.96497 117.284 2.96802 117.292C2.97107 117.301 2.97736 117.308 2.98553 117.312C2.9937 117.316 3.00306 117.316 3.01158 117.313C3.01158 117.313 3.01158 117.313 3.01158 117.313C8.42003 115.46 13.8289 113.599 19.2325 111.73C41.172 104.137 63.072 96.4253 84.8326 88.3227C84.8609 88.3122 84.8892 88.3016 84.9174 88.2911C101.567 82.0469 118.201 75.7624 134.543 68.6705C134.587 68.651 134.631 68.6315 134.675 68.612L134.703 68.5988C140.107 65.4407 146.775 63.7408 150.107 57.5036C150.112 57.4655 150.115 57.4276 150.118 57.3897C150.226 56.3451 149.369 55.433 148.517 55.1551C148.482 55.1415 148.448 55.1286 148.412 55.1162C140.556 53.0416 132.52 53.8252 124.585 54.1332C124.552 54.1351 124.518 54.1371 124.485 54.139C110.215 54.9767 95.9725 56.29 81.7028 56.9717C81.6567 56.9736 81.6108 56.9755 81.565 56.9774C79.5309 57.0586 77.5187 57.1141 75.4988 57.0855C74.4966 57.0691 73.4861 57.034 72.4867 56.9351C71.9899 56.8843 71.4938 56.8194 71.0185 56.7063C70.7825 56.6489 70.5478 56.5785 70.3559 56.4797C70.2585 56.4296 70.1751 56.3687 70.1366 56.3157C70.1012 56.2604 70.0995 56.2513 70.1226 56.185C70.1244 56.1807 70.1263 56.1764 70.1283 56.1719C76.7381 50.7959 85.8586 48.5667 94.1212 45.7499C94.144 45.7428 94.1669 45.7356 94.1898 45.7284C108.559 41.2985 123.104 37.3312 137.797 34.1383C137.806 34.1364 137.815 34.1346 137.824 34.1327C142.058 33.2343 146.304 32.4429 150.577 31.804C156.221 30.9475 161.911 30.4268 167.609 29.9817Z" fill="#EBE7E6"/>
</svg>
